<svg xmlns="http://www.w3.org/2000/svg" width="183" height="183" fill="none" xmlns:v="https://vecta.io/nano"><circle cx="91.5" cy="91.5" r="91.5" fill="#74b9b6"/><path d="M29.93 81V59.672h5.61c2.295 0 4.028.469 5.2 1.406 1.182.928 1.773 2.28 1.773 4.058 0 1.289-.327 2.358-.982 3.208s-1.577 1.392-2.768 1.626a5.32 5.32 0 0 1 3.369 1.758c.898.986 1.348 2.119 1.348 3.398 0 1.816-.591 3.252-1.773 4.307C40.535 80.478 38.899 81 36.8 81h-6.87zm.791-10.532v9.741h6.167c1.807 0 3.223-.444 4.248-1.333 1.035-.898 1.553-2.139 1.553-3.721 0-1.348-.498-2.456-1.494-3.325-.996-.879-2.329-1.333-3.999-1.362h-6.475zm0-.791h5.112c1.943 0 3.408-.371 4.395-1.113.986-.752 1.48-1.914 1.48-3.486 0-3.027-1.997-4.565-5.991-4.614h-4.995v9.214zM48.606 81h-.791V65.15h.791V81zm-1.201-20.801c0-.225.078-.415.234-.571.156-.166.347-.249.571-.249s.415.083.571.249c.166.156.249.347.249.571s-.083.415-.249.571c-.156.156-.347.234-.571.234s-.415-.078-.571-.234-.234-.347-.234-.571zm13.389 5.523l-1.025-.088c-1.348 0-2.476.439-3.384 1.318-.908.869-1.504 2.09-1.787 3.662V81h-.791V65.15h.791v3.296c.43-1.103 1.074-1.977 1.933-2.622s1.939-.967 3.237-.967c.459 0 .83.054 1.113.161l-.088.703zm6.182 6.709l-.029.029-2.3 1.978V81h-.791V58.5h.791v15.073l1.86-1.758 7.207-6.665h1.128l-7.28 6.753L75.296 81h-1.025l-7.295-8.569zM44.906 118h-2.937l1.828-10.516H32.688L30.859 118h-2.937l3.953-22.75h2.938l-1.703 9.781h11.094l1.703-9.781h2.953L44.906 118zm15.203 0a3.79 3.79 0 0 1-.109-.891l.047-.89c-1.552 1.437-3.198 2.135-4.937 2.093-1.49-.02-2.703-.489-3.641-1.406-.927-.927-1.349-2.083-1.266-3.468.104-1.792.885-3.188 2.344-4.188 1.469-1.01 3.396-1.516 5.781-1.516l2.953.016.188-1.344c.104-1.01-.094-1.807-.594-2.39-.49-.594-1.229-.901-2.219-.922-.969-.021-1.828.218-2.578.718-.74.49-1.193 1.141-1.359 1.954l-2.844.015a4.5 4.5 0 0 1 1.156-2.625c.677-.771 1.547-1.364 2.609-1.781a8.34 8.34 0 0 1 3.297-.609c1.76.041 3.13.578 4.109 1.609.979 1.021 1.391 2.38 1.234 4.078l-1.375 8.375-.078 1.203c-.021.573.042 1.141.188 1.703l-.031.266h-2.875zm-4.437-2.188a4.93 4.93 0 0 0 2.563-.64c.813-.458 1.51-1.089 2.094-1.891l.609-3.484-2.141-.016c-1.781 0-3.146.281-4.094.844s-1.484 1.359-1.609 2.391c-.094.791.088 1.453.547 1.984.469.521 1.146.792 2.031.812zm-.406-19.203c.01-.479.167-.875.469-1.187.302-.323.703-.495 1.203-.516.479-.01.875.141 1.188.453.323.302.479.698.469 1.188 0 .479-.156.875-.469 1.188s-.714.479-1.203.5c-.49.01-.891-.135-1.203-.437-.302-.302-.453-.698-.453-1.187zm6.516.031c.011-.479.167-.88.469-1.203s.698-.495 1.188-.516c.5-.01.906.141 1.219.453.313.302.464.703.453 1.203 0 .49-.156.891-.469 1.203-.312.302-.714.464-1.203.484-.479.01-.88-.135-1.203-.437-.312-.302-.464-.698-.453-1.187zm15.563 7.031l-1.328-.141c-1.812 0-3.24.818-4.281 2.453L69.656 118h-2.828l2.938-16.906 2.734-.016-.422 1.969c1.198-1.573 2.609-2.339 4.234-2.297.344 0 .792.078 1.344.234l-.312 2.688zm6.203 6.531l-2.219 1.985-1 5.812H77.5l4.172-24H84.5L82 108.344l1.734-1.75 6-5.5h3.672l-7.766 7.203L90.984 118H87.89l-4.344-7.797zm19.234-9.422c1.417.021 2.63.407 3.641 1.157s1.755 1.786 2.234 3.109c.49 1.312.656 2.75.5 4.312l-.031.344c-.198 1.646-.687 3.136-1.469 4.469-.781 1.323-1.791 2.354-3.031 3.094s-2.599 1.088-4.078 1.046c-1.406-.02-2.62-.406-3.641-1.156-1.01-.75-1.75-1.771-2.219-3.062s-.635-2.714-.5-4.266c.156-1.75.63-3.323 1.422-4.719s1.807-2.474 3.047-3.234c1.25-.771 2.625-1.135 4.125-1.094zm-5.75 9.063a9.59 9.59 0 0 0 0 2.047c.104 1.229.469 2.208 1.094 2.937.635.729 1.479 1.11 2.531 1.141a4.54 4.54 0 0 0 2.594-.688c.792-.5 1.458-1.25 2-2.25s.891-2.109 1.047-3.328c.083-.958.099-1.765.047-2.422-.125-1.26-.505-2.255-1.141-2.984s-1.479-1.115-2.531-1.156c-1.458-.032-2.698.541-3.719 1.718s-1.651 2.719-1.891 4.625l-.031.36zm1.578-13.235c.01-.479.167-.875.469-1.187.302-.323.703-.495 1.203-.516.479-.01.875.141 1.188.453.323.302.479.698.469 1.188 0 .479-.157.875-.469 1.188s-.714.479-1.203.5c-.49.01-.891-.135-1.204-.437-.302-.302-.453-.698-.453-1.187zm6.516.031a1.75 1.75 0 0 1 .469-1.203c.302-.323.698-.495 1.187-.516.5-.01.907.141 1.219.453.312.302.464.703.453 1.203 0 .49-.156.891-.469 1.203-.312.302-.713.464-1.203.484-.479.01-.88-.135-1.203-.437-.312-.302-.463-.698-.453-1.187zm11.75 4.437l-.406 2.141c1.521-1.667 3.25-2.479 5.187-2.438 1.594.042 2.771.594 3.532 1.657s1.041 2.557.843 4.484L124.188 118h-2.829l1.86-11.125c.062-.51.067-.984.015-1.422-.177-1.458-1.036-2.203-2.578-2.234-1.698-.031-3.187.875-4.468 2.719L114.094 118h-2.828l2.937-16.906 2.672-.016zm18.984 17.234c-2.104-.041-3.75-.817-4.937-2.328s-1.688-3.442-1.5-5.796l.078-.672c.177-1.677.672-3.209 1.484-4.594.823-1.386 1.823-2.427 3-3.125a6.95 6.95 0 0 1 3.813-1.016c1.739.042 3.104.62 4.094 1.735s1.531 2.625 1.625 4.531a13.26 13.26 0 0 1-.063 2.031l-.172 1.297h-11.047c-.187 1.531.063 2.833.75 3.906.698 1.073 1.735 1.63 3.11 1.672 1.666.042 3.208-.708 4.625-2.25l1.625 1.375c-.709 1.021-1.625 1.823-2.75 2.406-1.115.573-2.36.849-3.735.828zm1.797-15.171a4.15 4.15 0 0 0-3.062 1.187c-.865.823-1.552 2.047-2.063 3.672l8.219.016.062-.25c.167-1.313-.046-2.401-.64-3.266-.583-.875-1.422-1.328-2.516-1.359zm13.094-2.063l-.406 2.141c1.521-1.667 3.25-2.479 5.187-2.438 1.594.042 2.771.594 3.531 1.657s1.042 2.557.844 4.484L158.062 118h-2.828l1.86-11.125c.062-.51.067-.984.015-1.422-.177-1.458-1.036-2.203-2.578-2.234-1.698-.031-3.187.875-4.469 2.719L147.969 118h-2.828l2.937-16.906 2.672-.016z" fill="#000"/></svg>