<svg width="100" height="100" viewBox="0 0 100 100" fill="none" xmlns="http://www.w3.org/2000/svg">
<circle cx="50" cy="50" r="50" fill="#F3C6A7"/>
<path d="M78.8315 32.0048C81.5566 40.4309 79.2759 49.0051 74.4698 55.4653C71.2975 59.8461 67.5062 63.6217 63.63 66.9227C60.0639 70.2445 52.0834 76.8174 49.968 77C48.0983 76.6423 46.0003 74.5266 44.516 73.4376C36.1751 67.0926 27.1965 59.3765 22.6439 50.94C18.8269 42.8406 18.8199 32.8227 24.7605 26.6131C32.4635 19.6637 44.0766 21.0216 49.9679 28.282C51.5501 26.228 53.4957 24.6126 55.8048 23.4358C65.1654 19.6967 74.9034 23.5068 78.8315 32.0048V32.0048Z" fill="white"/>
</svg>
