<svg width="183" height="183" viewBox="0 0 183 183" fill="none" xmlns="http://www.w3.org/2000/svg">
<circle cx="91.5" cy="91.5" r="91.5" fill="#74B9B6"/>
<path d="M39.5938 89H38.75V66.25H39.5938V89ZM45.25 80.375C45.25 77.6771 45.8177 75.5729 46.9531 74.0625C48.0885 72.5417 49.6458 71.7812 51.625 71.7812C52.8958 71.7812 54.0156 72.0677 54.9844 72.6406C55.9635 73.2135 56.7552 74.0677 57.3594 75.2031V65H58.2031V89H57.3594V86.2969C56.7865 87.2552 56 88 55 88.5312C54 89.0521 52.8646 89.3125 51.5938 89.3125C49.6354 89.3125 48.0885 88.5365 46.9531 86.9844C45.8177 85.4323 45.25 83.3021 45.25 80.5938V80.375ZM46.125 80.7031C46.125 83.099 46.599 84.9948 47.5469 86.3906C48.4948 87.776 49.8385 88.4688 51.5781 88.4688C52.974 88.4688 54.1667 88.1615 55.1562 87.5469C56.1458 86.9219 56.8802 86.0104 57.3594 84.8125V76.8906C56.3906 74.0469 54.474 72.625 51.6094 72.625C49.8802 72.625 48.5312 73.3073 47.5625 74.6719C46.6042 76.0365 46.125 78.0469 46.125 80.7031ZM74.4844 89C74.276 88.2812 74.1719 87.25 74.1719 85.9062C73.5052 86.9896 72.5938 87.8281 71.4375 88.4219C70.2812 89.0156 68.974 89.3125 67.5156 89.3125C65.9531 89.3125 64.6927 88.8906 63.7344 88.0469C62.7865 87.1927 62.3125 86.0833 62.3125 84.7188C62.3125 83.1667 63.0104 81.9271 64.4062 81C65.8125 80.0625 67.6771 79.5833 70 79.5625H74.1719V77.0938C74.1719 75.6771 73.724 74.5781 72.8281 73.7969C71.9427 73.0156 70.6719 72.625 69.0156 72.625C67.474 72.625 66.1875 73.0208 65.1562 73.8125C64.125 74.6042 63.6094 75.5833 63.6094 76.75L62.7656 76.7188C62.7656 75.3438 63.3698 74.1771 64.5781 73.2188C65.7865 72.2604 67.2656 71.7812 69.0156 71.7812C70.8385 71.7812 72.2865 72.2396 73.3594 73.1562C74.4323 74.0625 74.9844 75.3438 75.0156 77V85.0781C75.0156 86.9323 75.1615 88.1927 75.4531 88.8594V89H74.4844ZM67.5156 88.4844C69.099 88.4844 70.4583 88.1302 71.5938 87.4219C72.7396 86.7135 73.599 85.7188 74.1719 84.4375V80.4219H70.2656C67.849 80.4219 66 80.901 64.7188 81.8594C63.6771 82.6406 63.1562 83.6146 63.1562 84.7812C63.1562 85.8125 63.5677 86.6875 64.3906 87.4062C65.2135 88.125 66.2552 88.4844 67.5156 88.4844Z" fill="black"/>
<path d="M71.7168 116.697H61.3105L59.3418 128H56.0371L60.4844 102.406H75.8828L75.3906 105.184H63.2969L61.7852 113.938H72.209L71.7168 116.697ZM86.3945 111.881L84.9004 111.723C82.8613 111.723 81.2559 112.643 80.084 114.482L77.7461 128H74.5645L77.8691 108.98L80.9453 108.963L80.4707 111.178C81.8184 109.408 83.4062 108.547 85.2344 108.594C85.6211 108.594 86.125 108.682 86.7461 108.857L86.3945 111.881ZM96.7656 108.629C98.3594 108.652 99.7246 109.086 100.861 109.93C101.998 110.773 102.836 111.939 103.375 113.428C103.926 114.904 104.113 116.521 103.938 118.279L103.902 118.666C103.68 120.518 103.129 122.193 102.25 123.693C101.371 125.182 100.234 126.342 98.8398 127.174C97.4453 128.006 95.916 128.398 94.252 128.352C92.6699 128.328 91.3047 127.895 90.1562 127.051C89.0195 126.207 88.1875 125.059 87.6602 123.605C87.1328 122.152 86.9453 120.553 87.0977 118.807C87.2734 116.838 87.8066 115.068 88.6973 113.498C89.5879 111.928 90.7305 110.715 92.125 109.859C93.5312 108.992 95.0781 108.582 96.7656 108.629ZM90.2969 118.824C90.2148 119.562 90.2148 120.33 90.2969 121.127C90.4141 122.51 90.8242 123.611 91.5273 124.432C92.2422 125.252 93.1914 125.68 94.375 125.715C95.4297 125.75 96.4023 125.492 97.293 124.941C98.1836 124.379 98.9336 123.535 99.543 122.41C100.152 121.285 100.545 120.037 100.721 118.666C100.814 117.588 100.832 116.68 100.773 115.941C100.633 114.523 100.205 113.404 99.4902 112.584C98.7754 111.764 97.8262 111.33 96.6426 111.283C95.002 111.248 93.6074 111.893 92.459 113.217C91.3105 114.541 90.6016 116.275 90.332 118.42L90.2969 118.824ZM112.586 108.963L112.182 111.09C113.775 109.402 115.703 108.582 117.965 108.629C119.172 108.652 120.191 108.928 121.023 109.455C121.867 109.982 122.447 110.727 122.764 111.688C124.545 109.602 126.648 108.582 129.074 108.629C130.973 108.676 132.373 109.314 133.275 110.545C134.178 111.775 134.512 113.428 134.277 115.502L132.186 128H129.021L131.096 115.467C131.166 114.857 131.166 114.301 131.096 113.797C130.873 112.203 129.83 111.389 127.967 111.354C126.807 111.33 125.752 111.693 124.803 112.443C123.865 113.182 123.262 114.154 122.992 115.361L120.83 128H117.631L119.74 115.484C119.893 114.184 119.693 113.182 119.143 112.479C118.604 111.775 117.76 111.412 116.611 111.389C114.631 111.342 113.055 112.244 111.883 114.096L109.475 128H106.293L109.598 108.98L112.586 108.963Z" fill="black"/>
</svg>
