<svg width="183" height="183" viewBox="0 0 183 183" fill="none" xmlns="http://www.w3.org/2000/svg">
<circle cx="91.5" cy="91.5" r="91.5" fill="#74B9B6"/>
<path d="M66.834 122.24H78.6113L78.1191 125H63.0371L67.4844 99.4062H70.8066L66.834 122.24ZM92.0938 105.629C93.6875 105.652 95.0527 106.086 96.1895 106.93C97.3262 107.773 98.1641 108.939 98.7031 110.428C99.2539 111.904 99.4414 113.521 99.2656 115.279L99.2305 115.666C99.0078 117.518 98.457 119.193 97.5781 120.693C96.6992 122.182 95.5625 123.342 94.168 124.174C92.7734 125.006 91.2441 125.398 89.5801 125.352C87.998 125.328 86.6328 124.895 85.4844 124.051C84.3477 123.207 83.5156 122.059 82.9883 120.605C82.4609 119.152 82.2734 117.553 82.4258 115.807C82.6016 113.838 83.1348 112.068 84.0254 110.498C84.916 108.928 86.0586 107.715 87.4531 106.859C88.8594 105.992 90.4062 105.582 92.0938 105.629ZM85.625 115.824C85.543 116.562 85.543 117.33 85.625 118.127C85.7422 119.51 86.1523 120.611 86.8555 121.432C87.5703 122.252 88.5195 122.68 89.7031 122.715C90.7578 122.75 91.7305 122.492 92.6211 121.941C93.5117 121.379 94.2617 120.535 94.8711 119.41C95.4805 118.285 95.873 117.037 96.0488 115.666C96.1426 114.588 96.1602 113.68 96.1016 112.941C95.9609 111.523 95.5332 110.404 94.8184 109.584C94.1035 108.764 93.1543 108.33 91.9707 108.283C90.3301 108.248 88.9355 108.893 87.7871 110.217C86.6387 111.541 85.9297 113.275 85.6602 115.42L85.625 115.824ZM113.469 108.881L111.975 108.723C109.936 108.723 108.33 109.643 107.158 111.482L104.82 125H101.639L104.943 105.98L108.02 105.963L107.545 108.178C108.893 106.408 110.48 105.547 112.309 105.594C112.695 105.594 113.199 105.682 113.82 105.857L113.469 108.881ZM121.502 125.352C119.135 125.305 117.283 124.432 115.947 122.732C114.611 121.033 114.049 118.859 114.26 116.211L114.348 115.455C114.547 113.568 115.104 111.846 116.018 110.287C116.943 108.729 118.068 107.557 119.393 106.771C120.717 105.975 122.146 105.594 123.682 105.629C125.639 105.676 127.174 106.326 128.287 107.58C129.4 108.834 130.01 110.533 130.115 112.678C130.15 113.439 130.127 114.201 130.045 114.963L129.852 116.422H117.424C117.213 118.145 117.494 119.609 118.268 120.816C119.053 122.023 120.219 122.65 121.766 122.697C123.641 122.744 125.375 121.9 126.969 120.166L128.797 121.713C128 122.861 126.969 123.764 125.703 124.42C124.449 125.064 123.049 125.375 121.502 125.352ZM123.523 108.283C122.211 108.248 121.062 108.693 120.078 109.619C119.105 110.545 118.332 111.922 117.758 113.75L127.004 113.768L127.074 113.486C127.262 112.01 127.021 110.785 126.354 109.812C125.697 108.828 124.754 108.318 123.523 108.283ZM126.389 98H130.449L125.07 103.168H122.275L126.389 98ZM138.254 105.963L137.797 108.371C139.508 106.496 141.453 105.582 143.633 105.629C145.426 105.676 146.75 106.297 147.605 107.492C148.461 108.688 148.777 110.369 148.555 112.537L146.48 125H143.299L145.391 112.484C145.461 111.91 145.467 111.377 145.408 110.885C145.209 109.244 144.242 108.406 142.508 108.371C140.598 108.336 138.922 109.355 137.48 111.43L135.125 125H131.943L135.248 105.98L138.254 105.963Z" fill="black"/>
<path d="M41.3281 64.25L50.6875 85.7656L60.0781 64.25H61.3125V87H60.4688V65.5L51.0312 87H50.3594L40.9688 65.6094V87H40.125V64.25H41.3281ZM68.1719 87H67.3281V70.0938H68.1719V87ZM66.8906 64.8125C66.8906 64.5729 66.974 64.3698 67.1406 64.2031C67.3073 64.026 67.5104 63.9375 67.75 63.9375C67.9896 63.9375 68.1927 64.026 68.3594 64.2031C68.5365 64.3698 68.625 64.5729 68.625 64.8125C68.625 65.0521 68.5365 65.2552 68.3594 65.4219C68.1927 65.5885 67.9896 65.6719 67.75 65.6719C67.5104 65.6719 67.3073 65.5885 67.1406 65.4219C66.974 65.2552 66.8906 65.0521 66.8906 64.8125ZM84.6406 87C84.4323 86.2812 84.3281 85.25 84.3281 83.9062C83.6615 84.9896 82.75 85.8281 81.5938 86.4219C80.4375 87.0156 79.1302 87.3125 77.6719 87.3125C76.1094 87.3125 74.849 86.8906 73.8906 86.0469C72.9427 85.1927 72.4688 84.0833 72.4688 82.7188C72.4688 81.1667 73.1667 79.9271 74.5625 79C75.9688 78.0625 77.8333 77.5833 80.1562 77.5625H84.3281V75.0938C84.3281 73.6771 83.8802 72.5781 82.9844 71.7969C82.099 71.0156 80.8281 70.625 79.1719 70.625C77.6302 70.625 76.3438 71.0208 75.3125 71.8125C74.2812 72.6042 73.7656 73.5833 73.7656 74.75L72.9219 74.7188C72.9219 73.3438 73.526 72.1771 74.7344 71.2188C75.9427 70.2604 77.4219 69.7812 79.1719 69.7812C80.9948 69.7812 82.4427 70.2396 83.5156 71.1562C84.5885 72.0625 85.1406 73.3438 85.1719 75V83.0781C85.1719 84.9323 85.3177 86.1927 85.6094 86.8594V87H84.6406ZM77.6719 86.4844C79.2552 86.4844 80.6146 86.1302 81.75 85.4219C82.8958 84.7135 83.7552 83.7188 84.3281 82.4375V78.4219H80.4219C78.0052 78.4219 76.1562 78.901 74.875 79.8594C73.8333 80.6406 73.3125 81.6146 73.3125 82.7812C73.3125 83.8125 73.724 84.6875 74.5469 85.4062C75.3698 86.125 76.4115 86.4844 77.6719 86.4844Z" fill="black"/>
</svg>
