<svg width="183" height="183" viewBox="0 0 183 183" fill="none" xmlns="http://www.w3.org/2000/svg">
<circle cx="91.5" cy="91.5" r="91.5" fill="#74B9B6"/>
<path d="M38.0576 58.6719L46.832 78.8428L55.6357 58.6719H56.793V80H56.002V59.8438L47.1543 80H46.5244L37.7207 59.9463V80H36.9297V58.6719H38.0576ZM61.041 71.7676C61.041 70.2539 61.3291 68.8965 61.9053 67.6953C62.4912 66.4844 63.3115 65.542 64.3662 64.8682C65.4307 64.1943 66.6318 63.8574 67.9697 63.8574C69.2979 63.8574 70.4893 64.1846 71.5439 64.8389C72.5986 65.4932 73.4189 66.4209 74.0049 67.6221C74.6006 68.8232 74.9033 70.1758 74.9131 71.6797V72.3828C74.9131 73.9062 74.625 75.2686 74.0488 76.4697C73.4727 77.6709 72.6523 78.6084 71.5879 79.2822C70.5332 79.9561 69.3369 80.293 67.999 80.293C66.6611 80.293 65.46 79.9609 64.3955 79.2969C63.3408 78.6328 62.5205 77.7051 61.9346 76.5137C61.3486 75.3125 61.0508 73.9648 61.041 72.4707V71.7676ZM61.832 72.3828C61.832 73.7012 62.0908 74.9121 62.6084 76.0156C63.1357 77.1094 63.8633 77.9639 64.791 78.5791C65.7285 79.1943 66.7979 79.502 67.999 79.502C69.8057 79.502 71.2754 78.8232 72.4082 77.4658C73.5508 76.1084 74.1221 74.3604 74.1221 72.2217V71.7676C74.1221 70.4688 73.8584 69.2676 73.3311 68.1641C72.8037 67.0605 72.0713 66.2012 71.1338 65.5859C70.2061 64.9609 69.1514 64.6484 67.9697 64.6484C66.1631 64.6484 64.6885 65.3369 63.5459 66.7139C62.4033 68.0908 61.832 69.8242 61.832 71.9141V72.3828ZM89.0049 80C88.8096 79.3262 88.7119 78.3594 88.7119 77.0996C88.0869 78.1152 87.2324 78.9014 86.1484 79.458C85.0645 80.0146 83.8389 80.293 82.4717 80.293C81.0068 80.293 79.8252 79.8975 78.9268 79.1064C78.0381 78.3057 77.5938 77.2656 77.5938 75.9863C77.5938 74.5312 78.248 73.3691 79.5566 72.5C80.875 71.6211 82.623 71.1719 84.8008 71.1523H88.7119V68.8379C88.7119 67.5098 88.292 66.4795 87.4521 65.7471C86.6221 65.0146 85.4307 64.6484 83.8779 64.6484C82.4326 64.6484 81.2266 65.0195 80.2598 65.7617C79.293 66.5039 78.8096 67.4219 78.8096 68.5156L78.0186 68.4863C78.0186 67.1973 78.585 66.1035 79.7178 65.2051C80.8506 64.3066 82.2373 63.8574 83.8779 63.8574C85.5869 63.8574 86.9443 64.2871 87.9502 65.1465C88.9561 65.9961 89.4736 67.1973 89.5029 68.75V76.3232C89.5029 78.0615 89.6396 79.2432 89.9131 79.8682V80H89.0049ZM82.4717 79.5166C83.9561 79.5166 85.2305 79.1846 86.2949 78.5205C87.3691 77.8564 88.1748 76.9238 88.7119 75.7227V71.958H85.0498C82.7842 71.958 81.0508 72.4072 79.8496 73.3057C78.873 74.0381 78.3848 74.9512 78.3848 76.0449C78.3848 77.0117 78.7705 77.832 79.542 78.5059C80.3135 79.1797 81.29 79.5166 82.4717 79.5166Z" fill="black"/>
<path d="M69.1445 122H65.8398L67.8965 110.17H55.3984L53.3418 122H50.0371L54.4844 96.4062H57.7891L55.873 107.41H68.3535L70.2695 96.4062H73.5918L69.1445 122ZM86.248 122C86.166 121.66 86.125 121.326 86.125 120.998L86.1777 119.996C84.4316 121.613 82.5801 122.398 80.623 122.352C78.9473 122.328 77.582 121.801 76.5273 120.77C75.4844 119.727 75.0098 118.426 75.1035 116.867C75.2207 114.852 76.0996 113.281 77.7402 112.156C79.3926 111.02 81.5605 110.451 84.2441 110.451L87.5664 110.469L87.7773 108.957C87.8945 107.82 87.6719 106.924 87.1094 106.268C86.5586 105.6 85.7266 105.254 84.6133 105.23C83.5234 105.207 82.5566 105.477 81.7129 106.039C80.8809 106.59 80.3711 107.322 80.1836 108.236L76.9844 108.254C77.0898 107.141 77.5234 106.156 78.2852 105.301C79.0469 104.434 80.0254 103.766 81.2207 103.297C82.416 102.816 83.6523 102.588 84.9297 102.611C86.9102 102.658 88.4512 103.262 89.5527 104.422C90.6543 105.57 91.1172 107.1 90.9414 109.01L89.3945 118.432L89.3066 119.785C89.2832 120.43 89.3535 121.068 89.5176 121.701L89.4824 122H86.248ZM81.2559 119.539C82.2754 119.562 83.2363 119.322 84.1387 118.818C85.0527 118.303 85.8379 117.594 86.4941 116.691L87.1797 112.771L84.7715 112.754C82.7676 112.754 81.2324 113.07 80.166 113.703C79.0996 114.336 78.4961 115.232 78.3555 116.393C78.25 117.283 78.4551 118.027 78.9707 118.625C79.498 119.211 80.2598 119.516 81.2559 119.539ZM100.117 102.963L99.6602 105.371C101.371 103.496 103.316 102.582 105.496 102.629C107.289 102.676 108.613 103.297 109.469 104.492C110.324 105.688 110.641 107.369 110.418 109.537L108.344 122H105.162L107.254 109.484C107.324 108.91 107.33 108.377 107.271 107.885C107.072 106.244 106.105 105.406 104.371 105.371C102.461 105.336 100.785 106.355 99.3438 108.43L96.9883 122H93.8066L97.1113 102.98L100.117 102.963ZM125.025 116.85C125.201 115.537 124.48 114.611 122.863 114.072L119.559 113.105C116.77 112.145 115.422 110.551 115.516 108.324C115.598 106.648 116.359 105.277 117.801 104.211C119.254 103.133 120.959 102.605 122.916 102.629C124.838 102.652 126.396 103.215 127.592 104.316C128.799 105.406 129.379 106.83 129.332 108.588L126.168 108.57C126.191 107.621 125.893 106.848 125.271 106.25C124.65 105.652 123.824 105.342 122.793 105.318C121.691 105.295 120.742 105.564 119.945 106.127C119.207 106.654 118.779 107.346 118.662 108.201C118.51 109.303 119.184 110.105 120.684 110.609L122.283 111.049C124.463 111.611 126.01 112.344 126.924 113.246C127.838 114.148 128.26 115.268 128.189 116.604C128.119 117.787 127.732 118.818 127.029 119.697C126.326 120.576 125.389 121.25 124.217 121.719C123.045 122.176 121.797 122.387 120.473 122.352C118.457 122.328 116.793 121.742 115.48 120.594C114.168 119.434 113.535 117.945 113.582 116.129L116.764 116.146C116.764 117.213 117.104 118.068 117.783 118.713C118.463 119.357 119.395 119.68 120.578 119.68C121.738 119.703 122.74 119.463 123.584 118.959C124.428 118.443 124.908 117.74 125.025 116.85ZM139.65 122.352C137.283 122.305 135.432 121.432 134.096 119.732C132.76 118.033 132.197 115.859 132.408 113.211L132.496 112.455C132.695 110.568 133.252 108.846 134.166 107.287C135.092 105.729 136.217 104.557 137.541 103.771C138.865 102.975 140.295 102.594 141.83 102.629C143.787 102.676 145.322 103.326 146.436 104.58C147.549 105.834 148.158 107.533 148.264 109.678C148.299 110.439 148.275 111.201 148.193 111.963L148 113.422H135.572C135.361 115.145 135.643 116.609 136.416 117.816C137.201 119.023 138.367 119.65 139.914 119.697C141.789 119.744 143.523 118.9 145.117 117.166L146.945 118.713C146.148 119.861 145.117 120.764 143.852 121.42C142.598 122.064 141.197 122.375 139.65 122.352ZM141.672 105.283C140.359 105.248 139.211 105.693 138.227 106.619C137.254 107.545 136.48 108.922 135.906 110.75L145.152 110.768L145.223 110.486C145.41 109.01 145.17 107.785 144.502 106.812C143.846 105.828 142.902 105.318 141.672 105.283ZM156.402 102.963L155.945 105.371C157.656 103.496 159.602 102.582 161.781 102.629C163.574 102.676 164.898 103.297 165.754 104.492C166.609 105.688 166.926 107.369 166.703 109.537L164.629 122H161.447L163.539 109.484C163.609 108.91 163.615 108.377 163.557 107.885C163.357 106.244 162.391 105.406 160.656 105.371C158.746 105.336 157.07 106.355 155.629 108.43L153.273 122H150.092L153.396 102.98L156.402 102.963Z" fill="black"/>
</svg>
