<svg width="183" height="183" viewBox="0 0 183 183" fill="none" xmlns="http://www.w3.org/2000/svg">
<circle cx="91.5" cy="91.5" r="91.5" fill="#74B9B6"/>
<path d="M45.0449 70.874H37.6475V80H36.8564V58.6719H43.6533C45.792 58.6719 47.4912 59.2236 48.751 60.3271C50.0205 61.4307 50.6553 62.9297 50.6553 64.8242C50.6553 66.2793 50.2012 67.5537 49.293 68.6475C48.3945 69.7314 47.2471 70.4053 45.8506 70.6689L51.5488 79.7949V80H50.7139L45.0449 70.874ZM37.6475 70.083H44.3711C46.0117 70.083 47.335 69.585 48.3408 68.5889C49.3564 67.5928 49.8643 66.3379 49.8643 64.8242C49.8643 63.1641 49.3027 61.8555 48.1797 60.8984C47.0664 59.9414 45.5381 59.4629 43.5947 59.4629H37.6475V70.083ZM54.9473 71.7676C54.9473 70.2539 55.2354 68.8965 55.8115 67.6953C56.3975 66.4844 57.2178 65.542 58.2725 64.8682C59.3369 64.1943 60.5381 63.8574 61.876 63.8574C63.2041 63.8574 64.3955 64.1846 65.4502 64.8389C66.5049 65.4932 67.3252 66.4209 67.9111 67.6221C68.5068 68.8232 68.8096 70.1758 68.8193 71.6797V72.3828C68.8193 73.9062 68.5312 75.2686 67.9551 76.4697C67.3789 77.6709 66.5586 78.6084 65.4941 79.2822C64.4395 79.9561 63.2432 80.293 61.9053 80.293C60.5674 80.293 59.3662 79.9609 58.3018 79.2969C57.2471 78.6328 56.4268 77.7051 55.8408 76.5137C55.2549 75.3125 54.957 73.9648 54.9473 72.4707V71.7676ZM55.7383 72.3828C55.7383 73.7012 55.9971 74.9121 56.5146 76.0156C57.042 77.1094 57.7695 77.9639 58.6973 78.5791C59.6348 79.1943 60.7041 79.502 61.9053 79.502C63.7119 79.502 65.1816 78.8232 66.3145 77.4658C67.457 76.1084 68.0283 74.3604 68.0283 72.2217V71.7676C68.0283 70.4688 67.7646 69.2676 67.2373 68.1641C66.71 67.0605 65.9775 66.2012 65.04 65.5859C64.1123 64.9609 63.0576 64.6484 61.876 64.6484C60.0693 64.6484 58.5947 65.3369 57.4521 66.7139C56.3096 68.0908 55.7383 69.8242 55.7383 71.9141V72.3828ZM84.7861 72.2217C84.7861 74.6924 84.2539 76.6553 83.1895 78.1104C82.125 79.5654 80.6748 80.293 78.8389 80.293C77.6475 80.293 76.583 80.0488 75.6455 79.5605C74.708 79.0625 73.9707 78.374 73.4336 77.4951V80H72.6426V57.5H73.4336V67.0361C73.9902 65.9912 74.7227 65.2002 75.6309 64.6631C76.5488 64.126 77.6084 63.8574 78.8096 63.8574C80.665 63.8574 82.125 64.5703 83.1895 65.9961C84.2539 67.4121 84.7861 69.4043 84.7861 71.9727V72.2217ZM83.9658 71.9141C83.9658 69.6387 83.5117 67.8613 82.6035 66.582C81.7051 65.293 80.4453 64.6484 78.8242 64.6484C77.4961 64.6484 76.3682 64.9902 75.4404 65.6738C74.5225 66.3574 73.8535 67.373 73.4336 68.7207V75.9863C73.8535 77.1094 74.5225 77.9785 75.4404 78.5938C76.3682 79.1992 77.5059 79.502 78.8535 79.502C80.4844 79.502 81.7441 78.8525 82.6328 77.5537C83.5215 76.2549 83.9658 74.375 83.9658 71.9141ZM90.0889 80H89.2979V64.1504H90.0889V80ZM88.8877 59.1992C88.8877 58.9746 88.9658 58.7842 89.1221 58.6279C89.2783 58.4619 89.4688 58.3789 89.6934 58.3789C89.918 58.3789 90.1084 58.4619 90.2646 58.6279C90.4307 58.7842 90.5137 58.9746 90.5137 59.1992C90.5137 59.4238 90.4307 59.6143 90.2646 59.7705C90.1084 59.9268 89.918 60.0049 89.6934 60.0049C89.4688 60.0049 89.2783 59.9268 89.1221 59.7705C88.9658 59.6143 88.8877 59.4238 88.8877 59.1992ZM96.0801 67.8418C96.5977 66.6113 97.3594 65.6396 98.3652 64.9268C99.3711 64.2139 100.484 63.8574 101.705 63.8574C103.404 63.8574 104.664 64.3408 105.484 65.3076C106.314 66.2646 106.734 67.7148 106.744 69.6582V80H105.953V69.6289C105.943 67.9297 105.597 66.6748 104.913 65.8643C104.229 65.0439 103.146 64.6338 101.661 64.6338C100.294 64.6338 99.1074 65.1221 98.1016 66.0986C97.1055 67.0654 96.4316 68.3154 96.0801 69.8486V80H95.2891V64.1504H96.0801V67.8418Z" fill="black"/>
<path d="M70.0371 118L74.4844 92.4062L81.9902 92.4238C84.6035 92.4238 86.5605 93.0098 87.8613 94.1816C89.1621 95.3535 89.7305 96.9883 89.5664 99.0859C89.3555 101.535 87.8145 103.381 84.9434 104.623C86.0918 105.068 86.9473 105.83 87.5098 106.908C88.084 107.986 88.3184 109.176 88.2129 110.477C88.0371 112.785 87.1113 114.619 85.4355 115.979C83.7598 117.326 81.5918 118 78.9316 118H70.0371ZM75.416 106.029L73.8164 115.24L79.0371 115.258C80.6309 115.258 81.9668 114.83 83.0449 113.975C84.123 113.119 84.75 111.965 84.9258 110.512C85.0898 109.129 84.8496 108.051 84.2051 107.277C83.5605 106.504 82.5469 106.094 81.1641 106.047L75.416 106.029ZM75.8906 103.322L80.6543 103.34C82.1426 103.34 83.3965 102.959 84.416 102.197C85.4473 101.436 86.0508 100.387 86.2266 99.0508C86.3789 97.8086 86.1328 96.8711 85.4883 96.2383C84.8555 95.6055 83.8008 95.2598 82.3242 95.2012L77.2969 95.1836L75.8906 103.322ZM102.047 98.6289C103.641 98.6523 105.006 99.0859 106.143 99.9297C107.279 100.773 108.117 101.939 108.656 103.428C109.207 104.904 109.395 106.521 109.219 108.279L109.184 108.666C108.961 110.518 108.41 112.193 107.531 113.693C106.652 115.182 105.516 116.342 104.121 117.174C102.727 118.006 101.197 118.398 99.5332 118.352C97.9512 118.328 96.5859 117.895 95.4375 117.051C94.3008 116.207 93.4688 115.059 92.9414 113.605C92.4141 112.152 92.2266 110.553 92.3789 108.807C92.5547 106.838 93.0879 105.068 93.9785 103.498C94.8691 101.928 96.0117 100.715 97.4062 99.8594C98.8125 98.9922 100.359 98.582 102.047 98.6289ZM95.5781 108.824C95.4961 109.562 95.4961 110.33 95.5781 111.127C95.6953 112.51 96.1055 113.611 96.8086 114.432C97.5234 115.252 98.4727 115.68 99.6562 115.715C100.711 115.75 101.684 115.492 102.574 114.941C103.465 114.379 104.215 113.535 104.824 112.41C105.434 111.285 105.826 110.037 106.002 108.666C106.096 107.588 106.113 106.68 106.055 105.941C105.914 104.523 105.486 103.404 104.771 102.584C104.057 101.764 103.107 101.33 101.924 101.283C100.283 101.248 98.8887 101.893 97.7402 103.217C96.5918 104.541 95.8828 106.275 95.6133 108.42L95.5781 108.824ZM117.902 98.9629L117.445 101.371C119.156 99.4961 121.102 98.582 123.281 98.6289C125.074 98.6758 126.398 99.2969 127.254 100.492C128.109 101.688 128.426 103.369 128.203 105.537L126.129 118H122.947L125.039 105.484C125.109 104.91 125.115 104.377 125.057 103.885C124.857 102.244 123.891 101.406 122.156 101.371C120.246 101.336 118.57 102.355 117.129 104.43L114.773 118H111.592L114.896 98.9805L117.902 98.9629ZM141.598 98.6289C143.191 98.6523 144.557 99.0859 145.693 99.9297C146.83 100.773 147.668 101.939 148.207 103.428C148.758 104.904 148.945 106.521 148.77 108.279L148.734 108.666C148.512 110.518 147.961 112.193 147.082 113.693C146.203 115.182 145.066 116.342 143.672 117.174C142.277 118.006 140.748 118.398 139.084 118.352C137.502 118.328 136.137 117.895 134.988 117.051C133.852 116.207 133.02 115.059 132.492 113.605C131.965 112.152 131.777 110.553 131.93 108.807C132.105 106.838 132.639 105.068 133.529 103.498C134.42 101.928 135.562 100.715 136.957 99.8594C138.363 98.9922 139.91 98.582 141.598 98.6289ZM135.129 108.824C135.047 109.562 135.047 110.33 135.129 111.127C135.246 112.51 135.656 113.611 136.359 114.432C137.074 115.252 138.023 115.68 139.207 115.715C140.262 115.75 141.234 115.492 142.125 114.941C143.016 114.379 143.766 113.535 144.375 112.41C144.984 111.285 145.377 110.037 145.553 108.666C145.646 107.588 145.664 106.68 145.605 105.941C145.465 104.523 145.037 103.404 144.322 102.584C143.607 101.764 142.658 101.33 141.475 101.283C139.834 101.248 138.439 101.893 137.291 103.217C136.143 104.541 135.434 106.275 135.164 108.42L135.129 108.824Z" fill="black"/>
</svg>
