<svg xmlns="http://www.w3.org/2000/svg" width="183" height="183" fill="none" xmlns:v="https://vecta.io/nano"><circle cx="91.5" cy="91.5" r="91.5" fill="#74b9b6"/><path d="M33.703 79.888c0-.908-.215-1.675-.645-2.3-.42-.635-1.089-1.191-2.007-1.67-.908-.488-2.285-.986-4.131-1.494s-3.232-1.02-4.16-1.538c-.918-.517-1.592-1.118-2.021-1.802s-.645-1.514-.645-2.49c0-1.553.654-2.808 1.963-3.765 1.309-.967 3.013-1.45 5.112-1.45 1.367 0 2.593.269 3.677.806 1.094.527 1.939 1.274 2.534 2.241.596.957.894 2.041.894 3.252h-.791c0-1.592-.586-2.905-1.758-3.94-1.172-1.045-2.69-1.567-4.556-1.567-1.875 0-3.393.42-4.556 1.26-1.152.83-1.729 1.875-1.729 3.135a3.72 3.72 0 0 0 1.509 3.091c1.006.781 2.666 1.475 4.98 2.08 2.314.596 4.009 1.289 5.083 2.08 1.367 1.006 2.051 2.353 2.051 4.043a4.72 4.72 0 0 1-.908 2.856c-.605.82-1.465 1.455-2.578 1.904s-2.363.674-3.75.674c-1.543 0-2.93-.254-4.16-.762-1.231-.517-2.158-1.25-2.783-2.197-.615-.947-.923-2.065-.923-3.355h.791c0 1.748.654 3.105 1.963 4.072s3.013 1.45 5.112 1.45c1.865 0 3.403-.425 4.614-1.274 1.211-.859 1.816-1.973 1.816-3.34zM48.513 85c-.195-.674-.293-1.641-.293-2.9a6.35 6.35 0 0 1-2.564 2.358c-1.084.556-2.309.835-3.677.835-1.465 0-2.647-.396-3.545-1.187-.889-.801-1.333-1.841-1.333-3.12 0-1.455.654-2.617 1.963-3.486 1.318-.879 3.066-1.328 5.244-1.348h3.911v-2.314c0-1.328-.42-2.358-1.26-3.091-.83-.733-2.022-1.099-3.574-1.099-1.445 0-2.651.371-3.618 1.113s-1.45 1.66-1.45 2.754l-.791-.029c0-1.289.566-2.383 1.699-3.281s2.52-1.348 4.16-1.348c1.709 0 3.066.43 4.072 1.289 1.006.85 1.523 2.051 1.553 3.603v7.573c0 1.738.137 2.92.41 3.545V85h-.908zm-6.533-.483c1.484 0 2.759-.332 3.823-.996 1.074-.664 1.88-1.597 2.417-2.798v-3.765h-3.662c-2.266 0-3.999.449-5.2 1.348-.977.732-1.465 1.645-1.465 2.739 0 .967.386 1.787 1.157 2.461s1.748 1.011 2.93 1.011zm12.935-11.675c.518-1.231 1.279-2.202 2.285-2.915s2.119-1.069 3.34-1.069c1.699 0 2.959.483 3.779 1.45.83.957 1.25 2.407 1.26 4.351V85h-.791V74.629c-.01-1.699-.356-2.954-1.04-3.765-.684-.82-1.768-1.231-3.252-1.231-1.367 0-2.554.488-3.56 1.465-.996.967-1.67 2.217-2.021 3.75V85h-.791V69.15h.791v3.691zm14.912 4.072c0-2.529.532-4.502 1.597-5.918 1.064-1.426 2.524-2.139 4.38-2.139 1.191 0 2.241.269 3.149.806.918.537 1.66 1.338 2.227 2.402V62.5h.791V85h-.791v-2.534a5.57 5.57 0 0 1-2.212 2.095c-.937.488-2.002.733-3.193.733-1.836 0-3.286-.728-4.35-2.183s-1.597-3.452-1.597-5.991v-.205zm.82.308c0 2.246.444 4.023 1.333 5.332.889 1.299 2.148 1.948 3.779 1.948 1.309 0 2.427-.288 3.355-.864.928-.586 1.616-1.44 2.065-2.563v-7.427c-.908-2.666-2.705-3.999-5.391-3.999-1.621 0-2.886.64-3.794 1.919-.898 1.279-1.348 3.164-1.348 5.654zm23.335-7.5l-1.025-.088c-1.348 0-2.476.439-3.384 1.318-.908.869-1.504 2.09-1.787 3.662V85h-.791V69.15h.791v3.296c.43-1.103 1.074-1.977 1.934-2.622s1.938-.967 3.237-.967c.459 0 .83.054 1.113.161l-.088.703zM106.696 85c-.195-.674-.293-1.641-.293-2.9-.625 1.016-1.479 1.802-2.563 2.358s-2.31.835-3.677.835c-1.465 0-2.646-.396-3.545-1.187-.889-.801-1.333-1.841-1.333-3.12 0-1.455.654-2.617 1.963-3.486 1.318-.879 3.066-1.328 5.244-1.348h3.911v-2.314c0-1.328-.42-2.358-1.259-3.091-.831-.733-2.022-1.099-3.575-1.099-1.445 0-2.651.371-3.618 1.113s-1.45 1.66-1.45 2.754l-.791-.029c0-1.289.566-2.383 1.699-3.281s2.52-1.348 4.16-1.348c1.709 0 3.067.43 4.073 1.289 1.005.85 1.523 2.051 1.552 3.603v7.573c0 1.738.137 2.92.41 3.545V85h-.908zm-6.533-.483c1.484 0 2.759-.332 3.823-.996a6.15 6.15 0 0 0 2.417-2.798v-3.765h-3.662c-2.265 0-3.999.449-5.2 1.348-.977.732-1.465 1.645-1.465 2.739 0 .967.386 1.787 1.157 2.461s1.748 1.011 2.93 1.011zM18.922 122l3.953-22.75 5.906.016c1.854 0 3.448.464 4.781 1.39 1.344.927 2.307 2.209 2.891 3.844.583 1.625.755 3.448.516 5.469l-.156 1.14c-.458 3.313-1.745 5.959-3.859 7.938-2.115 1.969-4.771 2.953-7.969 2.953h-6.062zm6.453-20.281l-3.094 17.828 2.891.015c2.208 0 4.078-.687 5.609-2.062 1.542-1.375 2.542-3.26 3-5.656.365-1.917.49-3.547.375-4.891-.156-1.614-.693-2.875-1.609-3.781-.917-.917-2.146-1.396-3.687-1.438l-3.484-.015zM49.359 122a3.79 3.79 0 0 1-.109-.891l.047-.89c-1.552 1.437-3.198 2.135-4.937 2.093-1.49-.02-2.703-.489-3.641-1.406-.927-.927-1.349-2.083-1.266-3.468.104-1.792.885-3.188 2.344-4.188 1.469-1.01 3.396-1.516 5.781-1.516l2.953.016.188-1.344c.104-1.01-.094-1.807-.594-2.39-.49-.594-1.229-.901-2.219-.922-.969-.021-1.828.218-2.578.718-.74.49-1.193 1.141-1.359 1.954l-2.844.015a4.5 4.5 0 0 1 1.156-2.625c.677-.771 1.547-1.364 2.609-1.781a8.34 8.34 0 0 1 3.297-.609c1.76.041 3.13.578 4.109 1.609.979 1.021 1.391 2.38 1.234 4.078l-1.375 8.375-.078 1.203c-.021.573.042 1.141.188 1.703l-.031.266h-2.875zm-4.437-2.188a4.93 4.93 0 0 0 2.563-.64c.813-.458 1.51-1.089 2.094-1.891l.609-3.484-2.141-.016c-1.781 0-3.146.281-4.094.844s-1.484 1.359-1.609 2.391c-.094.791.088 1.453.547 1.984.469.521 1.146.792 2.031.812zm16.766-14.734l-.406 2.141c1.521-1.667 3.25-2.479 5.188-2.438 1.594.042 2.771.594 3.531 1.657s1.042 2.557.844 4.484L69 122h-2.828l1.859-11.125a5.93 5.93 0 0 0 .016-1.422c-.177-1.458-1.036-2.203-2.578-2.234-1.698-.031-3.188.875-4.469 2.719L58.906 122h-2.828l2.938-16.906 2.672-.016zM76.422 122H73.61l2.938-16.906h2.813L76.422 122zm2.328-23.078c.479-.021.875.125 1.188.438.323.302.484.703.484 1.203-.01.49-.172.891-.484 1.204-.302.312-.698.479-1.187.5s-.891-.12-1.203-.422-.464-.698-.453-1.188.167-.896.469-1.219.698-.495 1.188-.516zm9.609 23.39c-2.104-.041-3.75-.817-4.937-2.328s-1.687-3.442-1.5-5.796l.078-.672c.177-1.677.672-3.209 1.484-4.594.823-1.386 1.823-2.427 3-3.125a6.95 6.95 0 0 1 3.813-1.016c1.74.042 3.104.62 4.094 1.735s1.531 2.625 1.625 4.531c.031.677.01 1.354-.062 2.031l-.172 1.297H84.734c-.187 1.531.063 2.833.75 3.906.698 1.073 1.734 1.63 3.109 1.672 1.667.042 3.208-.708 4.625-2.25l1.625 1.375a7.48 7.48 0 0 1-2.75 2.406c-1.115.573-2.359.849-3.734.828zm1.797-15.171a4.15 4.15 0 0 0-3.062 1.187c-.865.823-1.552 2.047-2.063 3.672l8.219.016.063-.25c.167-1.313-.047-2.401-.641-3.266-.583-.875-1.422-1.328-2.516-1.359zM100.703 122h-2.812l4.156-24h2.828l-4.172 24zm15.094-4.578c.156-1.167-.485-1.99-1.922-2.469l-2.937-.859c-2.48-.854-3.678-2.271-3.594-4.25.073-1.49.75-2.709 2.031-3.656 1.292-.959 2.807-1.428 4.547-1.407 1.708.021 3.094.521 4.156 1.5 1.073.969 1.589 2.235 1.547 3.797l-2.813-.016c.021-.843-.244-1.531-.796-2.062s-1.287-.807-2.204-.828c-.979-.021-1.822.219-2.531.719-.656.468-1.036 1.083-1.14 1.843-.136.98.463 1.693 1.797 2.141l1.421.391c1.938.5 3.313 1.151 4.125 1.953s1.188 1.797 1.125 2.984c-.062 1.052-.406 1.969-1.031 2.75s-1.458 1.38-2.5 1.797a8.44 8.44 0 0 1-3.328.562c-1.792-.02-3.271-.541-4.438-1.562-1.166-1.031-1.729-2.354-1.687-3.969l2.828.016c0 .948.302 1.708.906 2.281s1.433.86 2.485.86c1.031.02 1.922-.193 2.672-.641.75-.458 1.177-1.083 1.281-1.875zm16.156 0c.156-1.167-.484-1.99-1.922-2.469l-2.937-.859c-2.479-.854-3.677-2.271-3.594-4.25.073-1.49.75-2.709 2.031-3.656 1.292-.959 2.808-1.428 4.547-1.407 1.708.021 3.094.521 4.156 1.5 1.073.969 1.589 2.235 1.547 3.797l-2.812-.016c.021-.843-.245-1.531-.797-2.062s-1.287-.807-2.203-.828c-.979-.021-1.823.219-2.531.719-.657.468-1.037 1.083-1.141 1.843-.136.98.463 1.693 1.797 2.141l1.422.391c1.937.5 3.312 1.151 4.125 1.953s1.187 1.797 1.125 2.984c-.063 1.052-.407 1.969-1.032 2.75s-1.458 1.38-2.5 1.797c-1.041.406-2.151.594-3.328.562-1.791-.02-3.271-.541-4.437-1.562-1.167-1.031-1.729-2.354-1.688-3.969l2.828.016c0 .948.302 1.708.907 2.281s1.432.86 2.484.86c1.031.02 1.922-.193 2.672-.641.75-.458 1.177-1.083 1.281-1.875zm15.078-12.641c1.417.021 2.63.407 3.641 1.157s1.755 1.786 2.234 3.109c.49 1.312.656 2.75.5 4.312l-.031.344c-.198 1.646-.687 3.136-1.469 4.469-.781 1.323-1.791 2.354-3.031 3.094s-2.599 1.088-4.078 1.046c-1.406-.02-2.62-.406-3.641-1.156-1.01-.75-1.75-1.771-2.218-3.062s-.636-2.714-.5-4.266c.156-1.75.63-3.323 1.421-4.719s1.808-2.474 3.047-3.234c1.25-.771 2.625-1.135 4.125-1.094zm-5.75 9.063a9.59 9.59 0 0 0 0 2.047c.104 1.229.469 2.208 1.094 2.937.635.729 1.479 1.11 2.531 1.141a4.54 4.54 0 0 0 2.594-.688c.792-.5 1.458-1.25 2-2.25s.891-2.109 1.047-3.328c.083-.958.099-1.765.047-2.422-.125-1.26-.505-2.255-1.141-2.984s-1.479-1.115-2.531-1.156c-1.458-.032-2.698.541-3.719 1.718s-1.651 2.719-1.891 4.625l-.031.36zm19.844-8.766l-.406 2.141c1.521-1.667 3.25-2.479 5.187-2.438 1.594.042 2.771.594 3.532 1.657s1.041 2.557.843 4.484L168.438 122h-2.829l1.86-11.125c.062-.51.067-.984.015-1.422-.177-1.458-1.036-2.203-2.578-2.234-1.698-.031-3.187.875-4.468 2.719L158.344 122h-2.828l2.937-16.906 2.672-.016z" fill="#000"/></svg>